<svg width="20" height="20" viewBox="0 0 20 20" fill="none" xmlns="http://www.w3.org/2000/svg">
<path fill-rule="evenodd" clip-rule="evenodd" d="M18.3334 10C18.3334 14.6024 14.6025 18.3334 10.0001 18.3334C5.39771 18.3334 1.66675 14.6024 1.66675 10C1.66675 5.39765 5.39771 1.66669 10.0001 1.66669C14.6025 1.66669 18.3334 5.39765 18.3334 10ZM10.0001 7.50002C10.5754 7.50002 11.0417 7.03365 11.0417 6.45835C11.0417 5.88306 10.5754 5.41669 10.0001 5.41669C9.42479 5.41669 8.95842 5.88306 8.95842 6.45835C8.95842 7.03365 9.42479 7.50002 10.0001 7.50002ZM10.8334 14.5834V8.75002H9.16675V14.5834H10.8334Z" fill="white"/>
</svg>
