<svg width="20" height="20" viewBox="0 0 20 20" fill="none" xmlns="http://www.w3.org/2000/svg">
<path fill-rule="evenodd" clip-rule="evenodd" d="M10 17.9999C14.4183 17.9999 18 14.4182 18 9.99994C18 5.58166 14.4183 1.99994 10 1.99994C5.58172 1.99994 2 5.58166 2 9.99994C2 14.4182 5.58172 17.9999 10 17.9999ZM7.69995 6.99995C7.69995 6.55812 8.05812 6.19995 8.49995 6.19995H10.5C11.0405 6.19995 11.6828 6.34021 12.2082 6.75572C12.764 7.19524 13.1 7.87356 13.1 8.74995C13.1 9.62696 12.763 10.3052 12.2072 10.7444C11.6817 11.1596 11.0397 11.3 10.5 11.3H9.29995V13C9.29995 13.4418 8.94178 13.8 8.49995 13.8C8.05812 13.8 7.69995 13.4418 7.69995 13V10.5V6.99995ZM10.5 9.69995H9.29995V7.79995H10.5C10.7915 7.79995 11.0493 7.87907 11.2158 8.01074C11.3519 8.11841 11.5 8.31509 11.5 8.74995C11.5 9.18419 11.3519 9.381 11.2152 9.48898C11.0482 9.62098 10.7902 9.69995 10.5 9.69995Z" fill="#F7F7F7"/>
</svg>
